<svg xmlns="http://www.w3.org/2000/svg" xmlns:xlink="http://www.w3.org/1999/xlink" width="500" zoomAndPan="magnify" viewBox="0 0 375 374.999991" height="500" preserveAspectRatio="xMidYMid meet" version="1.0"><path fill="#5646e1" d="M 320.929688 179.851562 C 294.359375 206.175781 248.09375 219.136719 224.863281 224.25 C 255.417969 210.1875 289.542969 185.714844 317.761719 143.492188 C 317.761719 143.480469 328 155.09375 320.929688 179.851562 Z M 320.929688 179.851562 " fill-opacity="1" fill-rule="nonzero"/><path fill="#5646e1" d="M 0 275.792969 C 0 275.792969 29.542969 196.402344 93.542969 187.175781 C 157.550781 177.945312 168.621094 204.402344 240.632812 178.554688 C 240.632812 178.554688 252.9375 217.328125 176.015625 227.171875 C 176.015625 227.171875 168.011719 242.554688 192.015625 242.554688 C 216.019531 242.554688 300.945312 231.832031 360.03125 143.472656 C 360.03125 143.472656 387.71875 174.859375 320.640625 244.398438 C 253.5625 313.9375 168.628906 349.648438 0 275.792969 Z M 0 275.792969 " fill-opacity="1" fill-rule="nonzero"/><path fill="#322889" d="M 259.6875 53.816406 C 247.476562 41.609375 227.691406 41.609375 215.480469 53.816406 L 199.027344 70.261719 L 182.582031 53.816406 C 170.371094 41.609375 150.578125 41.609375 138.375 53.816406 C 132.269531 59.921875 129.226562 67.914062 129.226562 75.917969 C 129.226562 83.917969 132.277344 91.917969 138.375 98.023438 L 199.035156 158.683594 L 199.042969 158.683594 L 259.703125 98.023438 C 271.898438 85.8125 271.898438 66.019531 259.6875 53.816406 Z M 221.375 109.945312 L 207.296875 109.945312 L 207.296875 124.027344 L 190.738281 124.027344 L 190.738281 109.945312 L 176.667969 109.945312 L 176.667969 93.386719 L 190.738281 93.386719 L 190.738281 79.316406 L 207.296875 79.316406 L 207.296875 93.398438 L 221.375 93.398438 Z M 221.375 109.945312 " fill-opacity="1" fill-rule="nonzero"/></svg>